<?xml version="1.0" encoding="UTF-8"?>
<svg width="18px" height="20px" viewBox="0 0 18 20" version="1.1" xmlns="http://www.w3.org/2000/svg" xmlns:xlink="http://www.w3.org/1999/xlink">
    <title>Bank</title>
    <g id="页面-1" stroke="none" stroke-width="1" fill="none" fill-rule="evenodd">
        <g id="Bank" fill="#FFFFFF" fill-rule="nonzero">
            <path d="M9.5115,0.63407 C9.1782,0.53164 8.8219,0.53164 8.4886,0.63407 L5.50285,1.55174 C3.9685,2.02333 2.51132,2.71666 1.17753,3.60977 C0.32969,4.17748 0.73157,5.49997 1.75193,5.49997 L16.2481,5.49997 C17.2685,5.49997 17.6703,4.17748 16.8225,3.60977 C15.4887,2.71666 14.0315,2.02333 12.4972,1.55174 L9.5115,0.63407 Z" id="路径"></path>
            <path d="M1.25,19 C1.25,18.5858 1.58579,18.25 2,18.25 L16,18.25 C16.4142,18.25 16.75,18.5858 16.75,19 C16.75,19.4142 16.4142,19.75 16,19.75 L2,19.75 C1.58579,19.75 1.25,19.4142 1.25,19 Z" id="路径"></path>
            <path d="M3.25,15 C3.25,15.4142 3.58579,15.75 4,15.75 C4.41421,15.75 4.75,15.4142 4.75,15 L4.75,9 C4.75,8.5858 4.41421,8.25 4,8.25 C3.58579,8.25 3.25,8.5858 3.25,9 L3.25,15 Z" id="路径"></path>
            <path d="M9,15.75 C8.5858,15.75 8.25,15.4142 8.25,15 L8.25,9 C8.25,8.5858 8.5858,8.25 9,8.25 C9.4142,8.25 9.75,8.5858 9.75,9 L9.75,15 C9.75,15.4142 9.4142,15.75 9,15.75 Z" id="路径"></path>
            <path d="M13.25,15 C13.25,15.4142 13.5858,15.75 14,15.75 C14.4142,15.75 14.75,15.4142 14.75,15 L14.75,9 C14.75,8.5858 14.4142,8.25 14,8.25 C13.5858,8.25 13.25,8.5858 13.25,9 L13.25,15 Z" id="路径"></path>
        </g>
    </g>
</svg>