<?xml version="1.0" encoding="UTF-8"?>
<svg width="21px" height="20px" viewBox="0 0 21 20" version="1.1" xmlns="http://www.w3.org/2000/svg" xmlns:xlink="http://www.w3.org/1999/xlink">
    <!-- Generator: Sketch 57.1 (83088) - https://sketch.com -->
    <title>Share-box</title>
    <desc>Created with Sketch.</desc>
    <g id="页面-1" stroke="none" stroke-width="1" fill="none" fill-rule="evenodd">
        <g id="Share-box" fill="#000000" fill-rule="nonzero">
            <path d="M18.0283,12.0938 C17.9461,12.1664 17.8964,12.2691 17.8911,12.3787 C17.8425,13.3913 17.7593,14.4027 17.6414,15.411 C17.4872,16.7286 16.4218,17.7783 15.0916,17.9269 C11.7358,18.302 8.2642,18.302 4.90838,17.9269 C3.57827,17.7783 2.51278,16.7286 2.35867,15.411 C1.95767,11.9824 1.95767,8.5189 2.35867,5.09033 C2.51278,3.77266 3.57827,2.72304 4.90838,2.57438 C7.1209,2.3271 9.3864,2.24297 11.6335,2.32176 C11.7957,2.32745 11.9338,2.20399 11.9452,2.04202 L11.9943,1.339 C11.9973,1.29761 12.0014,1.25666 12.0065,1.21617 C12.0309,1.02178 11.8961,0.8301 11.7003,0.82317 C9.3747,0.74078 7.03275,0.82762 4.74177,1.08367 C2.72971,1.30854 1.10538,2.89355 0.86883,4.91608 C0.45429,8.4604 0.45429,12.0409 0.86883,15.5852 C1.10538,17.6077 2.72971,19.1928 4.74177,19.4176 C8.2083,19.8051 11.7917,19.8051 15.2583,19.4176 C17.2703,19.1928 18.8946,17.6077 19.1312,15.5852 C19.3002,14.1404 19.4003,12.6896 19.4315995,11.2376 C19.4354,11.0554 19.2119,10.9646 19.0839,11.0944 C18.7438,11.4397 18.3917,11.773 18.0283,12.0938 Z" id="路径"></path>
            <path d="M5.86722,13.5504 C5.64599,13.4895 5.49465,13.2858 5.49987619,13.0564 L5.5594,10.5925 C5.64422,7.06456 8.5285,4.24875 12.0575,4.24875 L13.3149,4.24875 C13.3412,3.62502 13.3771,3.0016 13.4225,2.37869 L13.4903,1.44805 C13.5317,0.88011 14.165,0.56262 14.6448,0.86924 C16.7158,2.19253 18.5162,3.89762 19.95,5.89363 L20.4061,6.52857 C20.5313,6.70289 20.5313,6.93767 20.4061,7.11199 L19.95,7.74693 C18.5162,9.7429 16.7158,11.448 14.6448,12.7713 C14.2497,13.0238 13.749,12.8531 13.562,12.4678 C13.5228,12.3859 13.4975,12.2915 13.4903,12.1925 L13.4225,11.2619 C13.3683,10.519 13.3278,9.7754 13.3008,9.0314 L12.9467,8.9781 C10.6905,8.6385 8.4588,9.7273 7.33781,11.7145 L6.4355,13.3141 C6.39253,13.3902 6.33154,13.4518 6.2607,13.4951 C6.14574,13.5653 6.00398,13.5881 5.86722,13.5504 Z" id="路径"></path>
        </g>
    </g>
</svg>