<?xml version="1.0" encoding="UTF-8"?>
<svg width="16px" height="21px" viewBox="0 0 16 21" version="1.1" xmlns="http://www.w3.org/2000/svg" xmlns:xlink="http://www.w3.org/1999/xlink">
    <!-- Generator: Sketch 57.1 (83088) - https://sketch.com -->
    <title>Lightbulb-alt</title>
    <desc>Created with Sketch.</desc>
    <g id="页面-1" stroke="none" stroke-width="1" fill="none" fill-rule="evenodd">
        <g id="Lightbulb-alt" fill="#FFFFFF" fill-rule="nonzero">
            <path d="M0.5,7.76594 C0.5,3.73718 3.87403,0.5 8,0.5 C12.126,0.5 15.5,3.73718 15.5,7.76594 C15.5,10.1199 14.5269,12.2437 12.7051,13.5831 C12.5794,13.6756 12.5033,13.7902 12.4767,13.9028 C12.418,14.1521 12.353,14.441 12.2864,14.751 C12.2666,14.8434 12.185,14.9095 12.0905,14.9095 L8.95,14.9095 C8.8395,14.9095 8.75,14.82 8.75,14.7095 L8.75,14.0456 L9.7993,12.3975 C10.0064,12.0722 9.9331,11.643 9.6299,11.4048 L7.8308,9.992 L8.6327,8.7326 C8.8551,8.3832 8.7522,7.91958 8.4028,7.69712 C8.0534,7.47466 7.5898,7.57757 7.3673,7.92698 L6.2007,9.7594 C5.9936,10.0847 6.0669,10.5139 6.3701,10.7521 L8.1692,12.1649 L7.3673,13.4243 C7.2907,13.5447 7.25,13.6844 7.25,13.8271 L7.25,14.7095 C7.25,14.82 7.1605,14.9095 7.05,14.9095 L3.90949,14.9095 C3.815,14.9095 3.73344,14.8434 3.71359,14.751 C3.64697,14.441 3.58199,14.1522 3.52325,13.9028 C3.49675,13.7902 3.42064,13.6756 3.2949,13.5831 C1.47313,12.2437 0.5,10.1199 0.5,7.76594 Z" id="路径"></path>
            <path d="M4.28101,16.4095 C4.15644,16.4095 4.06223,16.5223 4.08341,16.645 C4.1876,17.249 4.26458,17.7924 4.28682,18.1599 C4.34981,19.2011 5.11672,20.0588 6.1422,20.2803 L6.3382,20.3227 C7.4326,20.5591 8.5674,20.5591 9.6618,20.3227 L9.8578,20.2803 C10.8833,20.0588 11.6502,19.2011 11.7132,18.1599 C11.7354,17.7924 11.8124,17.249 11.9166,16.645 C11.9378,16.5223 11.8436,16.4095 11.719,16.4095 L4.28101,16.4095 Z" id="路径"></path>
        </g>
    </g>
</svg>