<?xml version="1.0" encoding="UTF-8"?>
<svg width="14px" height="18px" viewBox="0 0 14 18" version="1.1" xmlns="http://www.w3.org/2000/svg" xmlns:xlink="http://www.w3.org/1999/xlink">
    <!-- Generator: Sketch 57.1 (83088) - https://sketch.com -->
    <title>Sand-watch</title>
    <desc>Created with Sketch.</desc>
    <g id="页面-1" stroke="none" stroke-width="1" fill="none" fill-rule="evenodd">
        <g id="Sand-watch" fill="#FFFFFF">
            <path d="M5.6637,8.8386 L5.851,9 L5.6637,9.1614 C3.68826,10.8634 2.04583,12.9172 0.81982,15.2185 C0.33871,16.1216 0.93601,17.2227 1.95536,17.3118 L3.1289,17.4144 C5.7047,17.6396 8.2953,17.6396 10.8711,17.4144 L12.0447,17.3118 C13.064,17.2227 13.6613,16.1216 13.1802,15.2185 C11.9542,12.9172 10.3118,10.8634 8.3363,9.1614 L8.149,9 L8.3363,8.8386 C10.3118,7.1366 11.9542,5.08279 13.1802,2.78147 C13.6613,1.8784 13.064,0.77732 12.0447,0.6882 L10.8711,0.58559 C8.2953,0.36038 5.7047,0.36039 3.1289,0.58559 L1.95536,0.6882 C0.93601,0.77732 0.33871,1.8784 0.81982,2.78148 C2.04583,5.08279 3.68826,7.1366 5.6637,8.8386 Z M7,6.75 C6.801,6.75 6.6103,6.67098 6.4696,6.53033 L4.46963,4.53033 C4.25513,4.31583 4.19097,3.99324 4.30705,3.71298 C4.42314,3.43273 4.69661,3.25 4.99996,3.25 L9,3.25 C9.3033,3.25 9.5768,3.43273 9.6929,3.71298 C9.809,3.99324 9.7448,4.31583 9.5303,4.53033 L7.5303,6.53033 C7.3896,6.67098 7.1989,6.75 7,6.75 Z M7,11.25 C6.801,11.25 6.6103,11.329 6.4696,11.4697 L4.46963,13.4697 C4.25513,13.6842 4.19097,14.0068 4.30705,14.287 C4.42314,14.5673 4.69661,14.75 4.99996,14.75 L9,14.75 C9.3033,14.75 9.5768,14.5673 9.6929,14.287 C9.809,14.0068 9.7448,13.6842 9.5303,13.4697 L7.5303,11.4697 C7.3896,11.329 7.1989,11.25 7,11.25 Z" id="形状"></path>
        </g>
    </g>
</svg>