<?xml version="1.0" encoding="UTF-8"?>
<svg width="18px" height="20px" viewBox="0 0 18 20" version="1.1" xmlns="http://www.w3.org/2000/svg" xmlns:xlink="http://www.w3.org/1999/xlink">
    <!-- Generator: Sketch 57.1 (83088) - https://sketch.com -->
    <title>Award</title>
    <desc>Created with Sketch.</desc>
    <g id="页面-1" stroke="none" stroke-width="1" fill="none" fill-rule="evenodd">
        <g id="Award" fill="#FFFFFF">
            <path d="M7.25,7.5 C7.25,6.5335 8.0335,5.75 9,5.75 C9.9665,5.75 10.75,6.5335 10.75,7.5 C10.75,8.4665 9.9665,9.25 9,9.25 C8.0335,9.25 7.25,8.4665 7.25,7.5 Z" id="路径" fill-rule="nonzero"></path>
            <path d="M2,7.5 C2,3.63401 5.13401,0.5 9,0.5 C12.866,0.5 16,3.63401 16,7.5 C16,8.8722 15.6052,10.1522 14.9229,11.2325 L17.6495,15.9551 C17.7967,16.2101 17.7812,16.5276 17.6097,16.767 C17.4382,17.0063 17.1425,17.1231 16.8537,17.0657 L14.2376,16.5455 L13.3801,19.0713 C13.2854,19.35 13.0364,19.5477 12.7434,19.5765 C12.4504,19.6054 12.1676,19.4601 12.0204,19.2051 L9.3002,14.4937 C9.2007,14.4979 9.1006,14.5 9,14.5 C8.8994,14.5 8.7993,14.4979 8.6998,14.4937 L5.97965,19.2051 C5.83258,19.4599 5.5502,19.6051 5.25745,19.5766 C4.96471,19.5481 4.71564,19.3511 4.62047,19.0728 L3.75854,16.5522 L1.14467,17.066 C0.85606,17.1228 0.56093,17.0056 0.38988,16.7663 C0.21882,16.527 0.20342,16.2099 0.35048,15.9551 L3.07708,11.2325 C2.39483,10.1522 2,8.8722 2,7.5 Z M4.08592,12.4852 C4.91817,13.3056 5.95488,13.9192 7.1127,14.2426 L5.50579,17.0259 L4.96599,15.4473 C4.84463,15.0924 4.47972,14.8817 4.11167,14.9541 L2.4747,15.2759 L4.08592,12.4852 Z M10.8873,14.2426 L12.4918,17.0217 L13.0287,15.4406 C13.1497,15.0842 13.516,14.8727 13.8851,14.9461 L15.5229,15.2717 L13.9141,12.4852 C13.0818,13.3056 12.0451,13.9192 10.8873,14.2426 Z M9,4.25 C7.2051,4.25 5.75,5.70507 5.75,7.5 C5.75,9.2949 7.2051,10.75 9,10.75 C10.7949,10.75 12.25,9.2949 12.25,7.5 C12.25,5.70507 10.7949,4.25 9,4.25 Z" id="形状"></path>
        </g>
    </g>
</svg>