<?xml version="1.0" encoding="UTF-8"?>
<svg width="19px" height="16px" viewBox="0 0 19 16" version="1.1" xmlns="http://www.w3.org/2000/svg" xmlns:xlink="http://www.w3.org/1999/xlink">
    <!-- Generator: Sketch 57.1 (83088) - https://sketch.com -->
    <title>Send</title>
    <desc>Created with Sketch.</desc>
    <g id="页面-1" stroke="none" stroke-width="1" fill="none" fill-rule="evenodd">
        <g id="Send" fill="#FFFFFF" fill-rule="nonzero">
            <path d="M18.2428,8.4371 C18.4016,8.3489 18.5,8.1816 18.5,7.99999807 C18.5,7.8184 18.4016,7.6511 18.2428,7.5629 L15.9605,6.295 C11.464,3.79689 6.72391,1.76488 1.81421,0.2306 L1.14914,0.02276 C0.99732,-0.02468 0.83198,0.00294 0.70383,0.09716 C0.57568,0.19138 0.5,0.34094 0.5,0.499998071 L0.5,6.25 C0.5,6.5159 0.70816,6.7353 0.97372,6.7493 L1.98336,6.8025 C4.44497,6.932 6.89156,7.2659 9.2979,7.8006 L9.5362,7.8536 C9.5892,7.8654 9.6122,7.887 9.625,7.9042 C9.6411,7.926 9.6536,7.9594 9.6536,7.99999807 C9.6536,8.0406 9.6411,8.0741 9.625,8.0958 C9.6122,8.113 9.5892,8.1347 9.5362,8.1464 L9.2979,8.1994 C6.89157,8.7341 4.44496,9.068 1.98334,9.1976 L0.97372,9.2507 C0.70816,9.2647 0.5,9.4841 0.5,9.75 L0.5,15.4999981 C0.5,15.6591 0.57568,15.8086 0.70383,15.9029 C0.83198,15.9971 0.99732,16.0247 1.14914,15.9772 L1.81422,15.7694 C6.72391,14.2351 11.464,12.2031 15.9605,9.705 L18.2428,8.4371 Z" id="路径"></path>
        </g>
    </g>
</svg>