<?xml version="1.0" encoding="UTF-8"?>
<svg width="20px" height="16px" viewBox="0 0 20 16" version="1.1" xmlns="http://www.w3.org/2000/svg" xmlns:xlink="http://www.w3.org/1999/xlink">
    <!-- Generator: Sketch 57.1 (83088) - https://sketch.com -->
    <title>Envelope</title>
    <desc>Created with Sketch.</desc>
    <g id="页面-1" stroke="none" stroke-width="1" fill="none" fill-rule="evenodd">
        <g id="Envelope" fill="#FFFFFF" fill-rule="nonzero">
            <path d="M5.28918,0.90761 C8.4238,0.63513 11.5762,0.63512 14.7108,0.90761 L16.2211,1.03889 C17.2264,1.12629 18.0875,1.72596 18.5337,2.58374 C18.5907,2.69347 18.5479,2.82633 18.4428,2.89144 L12.1768,6.7704 C10.833,7.6023 9.1384,7.6197 7.77772,6.8157 L1.46989,3.08833 C1.36798,3.02811 1.3212,2.90415 1.36713,2.79505 C1.77529,1.82548 2.69292,1.1333 3.77895,1.0389 L5.28918,0.90761 Z" id="路径"></path>
            <path d="M1.362,4.76688 C1.20603,4.67472 1.00703,4.7739 0.98885,4.95414 C0.73512,7.4698 0.79653,10.0092 1.17308,12.5133 C1.3716,13.8334 2.44901,14.8455 3.77895,14.9611 L5.28918,15.0924 C8.4238,15.3649 11.5762,15.3649 14.7108,15.0924 L16.2211,14.9611 C17.551,14.8455 18.6284,13.8334 18.8269,12.5133 C19.2145,9.9363 19.2682,7.3217 18.9882,4.73428 C18.9685,4.55276 18.7662,4.45541 18.6109,4.55151 L12.9664,8.0458 C11.1482,9.1713 8.8556,9.1949 7.01462,8.1071 L1.362,4.76688 Z" id="路径"></path>
        </g>
    </g>
</svg>