<svg viewBox="0 0 440.77 454.69" xmlns="http://www.w3.org/2000/svg"><clipPath id="a"><path d="M320.94 186.52v72.11q-3.37 42.7-34.37 68.83T237 354.33q-18.54-.75-49.54-26.88t-34.37-68.83v-72.1l83.9-24zM261 294.4l-13.67-33.52a7.16 7.16 0 0 1 3-7.12 24.41 24.41 0 0 0 7.87-8.33 21.85 21.85 0 0 0 2.81-11 24.19 24.19 0 0 0-7.3-16.95 23.78 23.78 0 0 0-16.86-7 23.35 23.35 0 0 0-16.86 7 23.85 23.85 0 0 0-6.93 16.95 21.85 21.85 0 0 0 2.81 11 24.41 24.41 0 0 0 7.87 8.33 7.16 7.16 0 0 1 3 7.12l-13.68 33.52z"/></clipPath><clipPath id="b"><path d="M89.67 127.33s3.95 36.1 6 44.45 23.65.43 37-9.19l10.48 14.55S116 210.23 92.06 209.09s-54.45-76.4-54.45-76.4c-9-31.6 21.2-59.36 21.2-59.36 2.65-.53 36.19-41.77 77.91-22.79 24.21 11 40.28 58.3 53.53 93.95L177 156.7 133.36 101l-37.71 33.72"/></clipPath><path d="M112.63 93.27h241.53v313.08H112.63z" fill="#c8e1ff"/><path d="M320.94 186.35v72.11q-3.37 42.7-34.37 68.83T237 354.16q-18.54-.75-49.54-26.88t-34.37-68.83v-72.1l83.9-24zM261 294.22l-13.67-33.52a7.16 7.16 0 0 1 3-7.12 24.41 24.41 0 0 0 7.87-8.33 21.85 21.85 0 0 0 2.81-11 24.19 24.19 0 0 0-7.3-16.95 23.78 23.78 0 0 0-16.86-7 23.35 23.35 0 0 0-16.86 7 23.85 23.85 0 0 0-6.93 16.95 21.85 21.85 0 0 0 2.81 11 24.41 24.41 0 0 0 7.87 8.33 7.16 7.16 0 0 1 3 7.12l-13.67 33.52z" fill="#79b8ff"/><circle cx="69.91" cy="261.61" fill="none" r="9.75" stroke="#79b8ff" stroke-miterlimit="10" stroke-width="2"/><path d="M281.885 56.964l8.917 8.917-8.917 8.916-8.917-8.916zM387.66 330.23v18.88h-18.88v-18.88z" fill="none" stroke="#05264c" stroke-miterlimit="10" stroke-width=".75"/><path d="M330.1 105.93c4.81 0 4.81 10 9.62 10s4.81-10 9.62-10 4.81 10 9.62 10 4.81-10 9.63-10 4.81 10 9.63 10" fill="none" stroke="#2088ff" stroke-miterlimit="10" stroke-width="2"/><path d="M260.55 163.56s-4.87 15.18-5.17 19.16 3.86 3.2 5.44 2 6.73-2.31 6.07 4.54a3.87 3.87 0 0 1-4.36 3.86s-3.95-3.15-5.37-1.91-3.57 1 .71 13.34c0 0-.19 1.05 1 .58s11-4.21 13.09-1.49-1.17 3.18-1.49 5.83 2 5.37 4.68 4.79 6.3-2.14 3-7.41c-2.49-3.93 2-6 13.23-1.85 0 0 .59.17.31.94s-3.06 8.81-2.47 11.4 3.66 2.57 5.28 1.15 6.15-2 6.45 3.84c.21 4.13-4.62 4.5-4.62 4.5s-4.8-3.38-6-1.68-2.19 3.34 1.63 13.81c0 0 6.48-2.58 11-2.73s3.37 4.08 1.8 5.7-.19 6.52 4.26 6 5.17-4.19 3.67-6.09-2.65-6 2.5-5.53a30.46 30.46 0 0 1 8.36 1.86l1.08-60.48zM153.81 272.08s10.66 3.64 15.28 3.32.8-5.66.8-5.66-3-5.91 4.1-5.93c6.05 0 5.16 5.65 2.88 7.41-1.45 1.12-.33 6 5.68 3.79a71.21 71.21 0 0 1 8.12-2.64s3.24 8.62 2.69 12.87c-.43 3.37-5.95 0-5.95 0s-4.71-1.9-5.48 3.48 3.85 6 6 4.72 5.23-2.68 5.58 1.29c.17 2-2.74 11.62-2.74 11.62l-5.67-1.8-23.19-.84z" fill="#c8e1ff"/><g clip-path="url(#a)" fill="none" stroke="#2b66cf" stroke-width=".75"><g stroke-miterlimit="10"><path d="M325.5 272.69a45.28 45.28 0 0 1-10.66 2.73 2.81 2.81 0 0 1-3.16-1.36 3 3 0 0 1 .29-3.18 8.68 8.68 0 0 1 .67-1 3.58 3.58 0 0 0-1.48-5.51 5.32 5.32 0 0 0-5.6.53 3.44 3.44 0 0 0-.92 4.74 14.89 14.89 0 0 1 1.16 1.8 2.73 2.73 0 0 1-2.86 4 40.16 40.16 0 0 1-6-1.16c-3.64-1-7.1-2.5-10.76-3.37a45.51 45.51 0 0 0-4.75-.93c-1.12-.14-2.29-.15-3.07 1-.92 1.39-.85 2.65.44 4.22a3.46 3.46 0 0 1 .93 3.27 4.33 4.33 0 0 1-4 3.13 4.75 4.75 0 0 1-5-2.39 3.28 3.28 0 0 1 .11-3.37c.31-.52.73-1 1-1.49a3.1 3.1 0 0 0 .19-3 2.6 2.6 0 0 0-2.72-1.38 28 28 0 0 0-6.12 1.16l-9.71 3a39.11 39.11 0 0 1-6.12 1.25 3.05 3.05 0 0 1-3.23-1.47 3 3 0 0 1 .39-3.14c.36-.58.84-1.09 1.14-1.7a3.47 3.47 0 0 0-1.46-4.54c-2.48-1.63-5.95-.81-7.18 1.48a3.21 3.21 0 0 0 .21 3.59c.29.42.56.84.85 1.26a2.87 2.87 0 0 1 .17 3.35c-.75 1.09-2 1.26-3.34 1.11-4.51-.52-8.72-2.09-13-3.51a45.13 45.13 0 0 0-8.13-1.88c-1.38-.19-2.68.08-3.34 1.38a3.23 3.23 0 0 0 .49 3.46 5 5 0 0 1 1.27 2.43 3.65 3.65 0 0 1-2 3.67 5.11 5.11 0 0 1-6.85-1.46 3.34 3.34 0 0 1 .11-3.8 12 12 0 0 0 1.14-1.7c1.08-2.64-.78-4.23-3-4a41.9 41.9 0 0 0-10.12 2.44M255.92 293.21c7.87-4.3 4.66 7 3.28 10.5-1.52 3.87-6.39 11.75-3.42 15.74 2 2.73 4.3-.21 6.6-.7 3.36-.71 5 3 4.29 5.87-1.42 6-6.62-.21-9.86 1.71-5.94 3.52 4.85 19.95 6.56 23.62"/><path d="M259.13 236.48c-1.13 3.23-7.46 18.43.71 16.06 3.42-1 7.11-1.59 7.06 3.37-.05 4.75-3.56 5-7 3.37-8.36-3.9-2.75 10.4-1.7 13.42M258.3 205.39c1 2.62 5.9 16.93-1.58 13.81-2.52-1.05-4.61-3-6.66.27a5.27 5.27 0 0 0 1 6.61M258.26 205.28c-.79.29-1.59.57-2.39.84a44 44 0 0 1-8.76 2 2.68 2.68 0 0 1-2.85-1.54c-.7-1.39-.09-2.52.66-3.58a3.78 3.78 0 0 0-2.24-6.42 4.86 4.86 0 0 0-5.47 2 3.26 3.26 0 0 0 0 3.68 15.9 15.9 0 0 1 1.29 2.1 2.6 2.6 0 0 1-.27 2.74 3 3 0 0 1-2.92 1.05 52.18 52.18 0 0 1-9.61-2.39 59.42 59.42 0 0 0-8.23-2.53 34.78 34.78 0 0 0-3.8-.63 2.74 2.74 0 0 0-3.06 1.35 3.34 3.34 0 0 0 .54 3.68 4.28 4.28 0 0 1 1.15 2.23c.1 2.08-.89 3.4-3.06 4.12a4.85 4.85 0 0 1-5.81-2 3.27 3.27 0 0 1 .32-3.91 6.46 6.46 0 0 0 1-1.69c.76-2.19-.47-3.84-2.72-3.77a29 29 0 0 0-6.75 1.25c-3.69 1-7.21 2.57-11 3.39-1.4.31-2.81.59-4.23.8a3 3 0 0 1-3.15-1.15 3.08 3.08 0 0 1 .2-3.47 3.49 3.49 0 0 1 .42-.63c2.07-2.22.66-5-1.47-5.93s-4.73-.38-5.94 1.06a3.5 3.5 0 0 0-.29 4.55c.29.44.68.82.93 1.28a3 3 0 0 1 .08 3.13A2.92 2.92 0 0 1 168 208a35.08 35.08 0 0 1-6.23-1.25c-1.51-.47-11.13-4.34-12.64-4.8M325.5 306.24c-2.57-.7-5.06-1.68-7.7-2.13-1.12-.19-2.24-.42-3.38-.51-2.2-.16-3.78 1.71-2.73 4.11a4.4 4.4 0 0 0 .74 1.16c2.14 2.39.67 4.89-1.29 5.88a5.43 5.43 0 0 1-5.91-.79 3.59 3.59 0 0 1-.29-5 4.16 4.16 0 0 0 1.16-2.54 2.51 2.51 0 0 0-2.74-2.84 28.83 28.83 0 0 0-6.32 1.07c-1.72.42-3.38 1.1-5.07 1.66M222.37 293c-3.13 7.56 5.87 14.56 4.87 23.56 0 2 0 4-3 4-2 0-4-3-6-2a5.5 5.5 0 0 0-3 5c0 7 7 3 12 3 1 9-4 17-5.61 25.59M226.66 265.32c-1.18 5.71-6 13.25-4.83 19.16s7.41-2.1 10.49 1.78"/><path d="M221.63 162.67c1.33 5.53 3.84 10.7 5 16.27.41 1.92 1.53 5-.49 6.41-2.4 1.65-4.06-1.38-6.26-1.6-4.91-.49-5.76 7.77-1.4 9.19 2.55.83 3.74-1.91 6.09-1.87 2.59 0 2.77 2.28 2.56 4.33-.57 5.59-3.28 10.69-4.59 16.09-.47 1.92-1.69 5.31-.3 7.07 1.76 2.23 3.58.24 5.34-.53 4.58-2 7.59 4.08 4.59 7.51-2.44 2.79-4.15.21-6.7-.53-3.2-.94-3.89 1.85-3.59 4.36.78 6.38 4 12.17 5 18.49"/><path d="M224.33 238.93a32.16 32.16 0 0 1-7.39 2.21 12.73 12.73 0 0 1-4.22.53c-2.62-.38-2.87-2.56-2-4.31a6.13 6.13 0 0 1 .62-.85c1.75-2.36 1.08-4.27-.86-5.67a5.27 5.27 0 0 0-6.84 1 3.46 3.46 0 0 0 .12 4.42 6 6 0 0 1 1.05 1.8 2.7 2.7 0 0 1-3.06 3.65 42 42 0 0 1-10.24-2.49 7 7 0 0 1-.63-.31M291.85 272.8a45.86 45.86 0 0 0-2.72 10.45 3.39 3.39 0 0 0 .5 2.64c.93 1.25 2.72 1.4 4.42.19a5.76 5.76 0 0 1 1.92-1.13c1.84-.43 3.58.46 4.43 2.62a5.22 5.22 0 0 1-1.25 5.72 3.41 3.41 0 0 1-4.54.07 6 6 0 0 0-2.34-1.23 2.68 2.68 0 0 0-3.15 2.62 28.79 28.79 0 0 0 1 6.23c.82 3.57 2.42 6.88 3.3 10.44.48 2 .89 3.93 1.2 5.92a2.77 2.77 0 0 1-4.17 2.93 6.84 6.84 0 0 1-1.18-.7c-2.2-1.78-4.53-1.21-5.79 1.36a5.25 5.25 0 0 0 .73 5.81 3.49 3.49 0 0 0 5 .3 5.15 5.15 0 0 1 2-1.05c2.37-.58 3.69 1.14 3.43 3.27a42.45 42.45 0 0 1-1.84 8.13c-.29.88-.56 1.76-.85 2.64M224.33 306.34a39.36 39.36 0 0 1-10.24 2.71c-2.12.29-3.09-.23-3.65-1.57a3.49 3.49 0 0 1 .81-3.57 3.9 3.9 0 0 0 1.05-2.22A3.6 3.6 0 0 0 210 298a5 5 0 0 0-6.65 1.8 3.14 3.14 0 0 0 .22 3.58 7.42 7.42 0 0 1 1.37 2.43 2.53 2.53 0 0 1-2.54 3.26 27.88 27.88 0 0 1-7.07-1.24c-1.55-.4-3.06-.93-4.56-1.47"/></g><path d="M291.85 272.59a27.07 27.07 0 0 0 2-6.23 19.38 19.38 0 0 0 .78-5.48 2.66 2.66 0 0 0-3.71-2.21 9.21 9.21 0 0 0-2 1.26 3.69 3.69 0 0 1-4-.07 5.33 5.33 0 0 1-1.26-6.58 3.7 3.7 0 0 1 4.44-2 13.39 13.39 0 0 1 2.23 1.44 2.91 2.91 0 0 0 3 .12 2.83 2.83 0 0 0 1.35-2.94 40.83 40.83 0 0 0-2.68-10.65V239c-1.22.45-2.45.9-3.7 1.26a52.4 52.4 0 0 1-7.18 1.54 3 3 0 0 1-3-1.27 3.16 3.16 0 0 1 .09-3 4 4 0 0 1 .62-.85c1.89-2.35 1.13-4.54-1.17-6-1.75-1.12-5.19-.52-6.41 1.16a3.31 3.31 0 0 0 0 4.41 5.36 5.36 0 0 1 1.24 2.44c.3 2.25-1.37 3.31-3.25 3.13a30.53 30.53 0 0 1-5.9-1.15 23.48 23.48 0 0 1-4.86-1.67" stroke-linejoin="round"/><path d="M190.76 306.36a53 53 0 0 0-1.88 6.1 45.32 45.32 0 0 0-.86 5 2.69 2.69 0 0 0 3.81 2.95 3.69 3.69 0 0 0 1.36-.74c2.09-2.13 5.16-1 6.14 1.7a5.35 5.35 0 0 1-1.17 5.59 3.38 3.38 0 0 1-4.74.1 5.64 5.64 0 0 0-2.11-1.06c-2-.56-3.49 1-3.27 3.07a36.44 36.44 0 0 0 2.31 9.71 9.89 9.89 0 0 1 .32 1.26M190.68 171.74a54.28 54.28 0 0 0-2.13 7.59c-.17 1.06-.37 2.11-.52 3.17a2.85 2.85 0 0 0 1.19 2.92 2.82 2.82 0 0 0 2.93 0 4.66 4.66 0 0 0 1-.64c2.25-2.06 5.22-1.07 6.19 1.82a5 5 0 0 1-1.33 5.58 3.37 3.37 0 0 1-4.53.09 5.34 5.34 0 0 0-1.7-1c-2.53-.89-4 .88-3.8 2.94a39.84 39.84 0 0 0 2.33 9.91 62.83 62.83 0 0 1 3.16 11.61c.31 1.92-.54 3.51-2.11 3.78a3.7 3.7 0 0 1-3-1c-1.23-1.05-2.58-1.51-4-.79a4.37 4.37 0 0 0-2.45 4 4.93 4.93 0 0 0 1.39 4 3.42 3.42 0 0 0 4.7.28c.39-.27.76-.58 1.18-.82a2.91 2.91 0 0 1 3.15-.08 2.84 2.84 0 0 1 1.17 2.93 43.25 43.25 0 0 1-1.67 7.71c-1.22 3.77-2.78 7.44-3.39 11.39a16.34 16.34 0 0 0-.42 3.27c.11 2.4 2.18 3.43 4.32 2.31a8.67 8.67 0 0 0 1-.73c2.59-1.87 5-.52 5.94 1.67.85 2 .32 5-1.61 6.25a3.54 3.54 0 0 1-4.22-.23 12 12 0 0 0-.95-.74 3 3 0 0 0-3.16-.18A3.08 3.08 0 0 0 188 262a45.15 45.15 0 0 0 2.63 10.34M258.2 239a48.76 48.76 0 0 0-10.2-2.68 4 4 0 0 0-2.84.41c-1.42.92-1.55 2.95-.32 4.52a4.49 4.49 0 0 1 1.26 2.53 3.92 3.92 0 0 1-3.28 4 5 5 0 0 1-5.18-1.44 3.38 3.38 0 0 1-.19-4.45 5.45 5.45 0 0 0 1.3-2.63 2.7 2.7 0 0 0-2.67-3 26 26 0 0 0-5.8 1 37.27 37.27 0 0 0-5.7 1.79M291.74 306.34a40.18 40.18 0 0 1-10.66 2.73c-1.28.15-2.47 0-3.17-1.35a3.07 3.07 0 0 1 .44-3.38c.64-.94 1.47-1.84 1.35-3.06-.2-2.08-1.55-3.14-3.36-3.69a5.22 5.22 0 0 0-5.57 1.91 3.45 3.45 0 0 0 .19 4 5.87 5.87 0 0 1 1.28 2.43 2.49 2.49 0 0 1-2.55 3.16 28.45 28.45 0 0 1-7.07-1.25c-3.61-.94-7-2.66-10.65-3.38-1.48-.29-2.95-.61-4.43-.83a3 3 0 0 0-3.36 1.47 3.33 3.33 0 0 0 .63 3.47 6.57 6.57 0 0 1 1.05 1.69c.69 2-.57 4.07-2.86 4.73a5 5 0 0 1-5.4-1.33 3.52 3.52 0 0 1-.2-4.46 4.77 4.77 0 0 0 1.29-2.63 2.59 2.59 0 0 0-2.54-3 13.18 13.18 0 0 0-3.27.42 33.92 33.92 0 0 0-7.28 2 9.68 9.68 0 0 1-1.05.32" stroke-miterlimit="10"/><path d="M190.68 238.93a49.18 49.18 0 0 0-10.54-2.67c-1.46-.18-2.66.14-3.33 1.33a3.1 3.1 0 0 0 .49 3.45c.69.93 1.45 1.85 1.34 3.06a3.85 3.85 0 0 1-2 3.06c-2.36 1.4-5.81.52-6.87-1.37a3.61 3.61 0 0 1 .21-4 6.88 6.88 0 0 0 1-1.56 2.73 2.73 0 0 0-3-4 38.9 38.9 0 0 0-5.49 1c-1.79.47-14.18 5.15-15.9 5.83" stroke-miterlimit="10"/></g><path d="M273.71 399.46h-13.66l-6.83 11.82 6.83 11.83h13.66l6.83-11.83z" fill="none" stroke="#79b8ff" stroke-miterlimit="10" stroke-width="2"/><path d="M303.93 153.17a50.34 50.34 0 0 1 5.59 1 28.73 28.73 0 0 1 5.71 1.83 2.57 2.57 0 0 1 .75 4.3 4.71 4.71 0 0 1-1.54 1.1 4 4 0 0 0-2.3 2.25c-.69 1.84.42 4.14 2.64 5.28a4.42 4.42 0 0 0 5.15-.5c1.22-1.1 1.28-2.41 1-3.91a3.08 3.08 0 0 1 1.07-3.32 2.73 2.73 0 0 1 3.48.16 35.69 35.69 0 0 1 5 4.06 12.81 12.81 0 0 1 3.71 5.82 146.65 146.65 0 0 0-3.35 3.24 35.69 35.69 0 0 0-4.06 5 2.73 2.73 0 0 0-.16 3.48 3.08 3.08 0 0 0 3.32 1.12c1.5-.29 2.81-.23 3.91 1a4.42 4.42 0 0 1 .5 5.15c-1.14 2.22-3.45 3.33-5.28 2.64a4 4 0 0 1-2.25-2.3 4.71 4.71 0 0 0-1.1-1.54 2.57 2.57 0 0 0-4.3.75 28.73 28.73 0 0 0-1.83 5.71 50.34 50.34 0 0 0-1 5.59h-.13a42.71 42.71 0 0 1-11.22-2.68 2.69 2.69 0 0 1-1-4.21 6 6 0 0 1 1.93-1.37 3.45 3.45 0 0 0 2.35-3.39c-.11-3-3.43-5.11-6.07-4.49-2.42.57-3.19 1.83-2.9 4.33a5.26 5.26 0 0 1 .16.89 3.64 3.64 0 0 1-1.24 3 2.67 2.67 0 0 1-3.18 0 153.9 153.9 0 0 1-14.58-13.46l21.49-26.53z" fill="none" stroke="#05264c" stroke-miterlimit="10" stroke-width=".75"/><path d="M31.67 181.34c0 9.62-20 9.62-20 19.24s20 9.62 20 19.24-20 9.62-20 19.24 20 9.62 20 19.25-20 9.62-20 19.25" fill="none" stroke="#05264c" stroke-miterlimit="10" stroke-width=".68"/><path d="M440.77 206.94s.45-59.56-32.87-73.75-156.22 24.11-156.22 24.11v14.18s44.44 4.25 105.42-.47c0 0 37.35 27.42 22.69 88.87 0 0-22.22 13.71-36.87 12.76s-52-17-52-17l-6.62 17.07S323.53 299.12 351 301s68.7-10.65 81.78-42.07c8.02-19.37 7.99-51.99 7.99-51.99z" fill="#0366d6"/><path d="M394.45 193a17 17 0 0 1 3-4.78 6.14 6.14 0 0 1 5.12-2c2.19.35 3.79 2.18 5.62 3.43 3.18 2.17 7.22 2.62 10.73 4.2s6.77 5.29 5.55 8.95c-.89 2.65-3.75 4.1-5.19 6.5-1.09 1.81-1.27 4-1.78 6.05s-1.56 4.21-3.54 5c-1.79.67-3.82 0-5.42-1.09s-2.94-2.47-4.6-3.43c-3.89-2.26-8.86-1.75-12.93-3.67M251.68 157.3l-5.36-11s-3-5.5-13.34 2.83-3.62 23.1 18.69 22.38" fill="#f66a0a"/><path d="M225.86 137.58c.35 3.39.78 7 .89 8a46.14 46.14 0 0 0 1 5.49 2.92 2.92 0 0 0 2.29 2.38 2.8 2.8 0 0 0 2.64-1 10.25 10.25 0 0 0 1.1-1.55 3.51 3.51 0 0 1 3.61-1.52c2.38.44 4.19 3.37 3.7 6a3.47 3.47 0 0 1-4.67 2.85 4.47 4.47 0 0 0-1.48-.32c-2.67-.06-3.81 1.78-3 4a14.31 14.31 0 0 0 1.57 2.67 46.81 46.81 0 0 0 5.17 6.82 47.2 47.2 0 0 1-8.88 6.37c-1.52.85-2.7.85-3.79-.22a3.66 3.66 0 0 1-.71-3.22 2.07 2.07 0 0 1 .17-.41c1.2-3.41-1.62-5.73-5-4.95a4.8 4.8 0 0 0-3.61 3 3.36 3.36 0 0 0 1.37 4.33 6.66 6.66 0 0 1 1.92 1.54A2.55 2.55 0 0 1 219 182a27.62 27.62 0 0 1-6.84 1.35c-1.66.2-3.32.26-5 .31a52 52 0 0 0-.38-5.94c-.18-1.25-4-11.51-6.09-17.46 0 0 13-16 25.1-22.7z" fill="#cde1fc" stroke="#05264c" stroke-linecap="round" stroke-linejoin="round" stroke-width=".75"/><path d="M205.56 160.59c1.51.89 3.59 2.06 4.3.44 1-2.4-2.24-4.32-2.24-4.32s3 2.4 4.11 0-2.42-4.14-2.42-4.14c1.88.93 4.31-1 0-3.73-11.36-7.29-19.06-4.35-19.06-4.35L177 156.7s2.16 11 13.25 13.6c7.29 1.7 5.73-3.8 1.87-4.48-2.1-.37-3.8-3.44-3.36-5.24s2.49-8.42 16.8.01z" fill="#0366d6"/><path d="M235.31 167L225 163.31s-4.26-1-3.14-4.11 15.14 2.94 15.14 2.94" fill="#f66a0a"/><path d="M233.08 160.59s2.56 1 6.88 0M275.1 251a18.65 18.65 0 0 1 6.72 1.78" fill="none" stroke="#05264c" stroke-miterlimit="10" stroke-width=".75"/><path d="M290.91 255.63c-24.35-9.55-23.07-2.79-24.05 1.8s-2.65 15.47 3.9 16.13a50.34 50.34 0 0 0 13.54-.86z" fill="#f66a0a"/><path d="M287.57 254.37s-10.85-11.07-13.41-9.37 1.14 7.33 4.56 9.37" fill="#f66a0a"/><path d="M273.23 256.6s-10.63-2.87-11.2-6.79 5.16-7.69 7.88-7.16-2.3 7-2.3 7l8.33 2.62" fill="#f66a0a"/><path d="M266 263.59s-6.2-4.83-6-9.22 2.09-4.56 2.09-4.56l8.9 4.56" fill="#f66a0a"/><path d="M267.39 268.41s-8-4.08-8.33-7.44.56-6.11 2.94-6.6 8 7.88 8 7.88" fill="#f66a0a"/><path d="M269 273s-8.73-3.53-9-7.05 3.79-5.45 3.79-5.45" fill="#f66a0a"/><path d="M262 249.81s0 2.94 6.94 5.34M259.94 255.68s0 2.94 6.94 5.34M260.55 263.59s1.49 1.94 5.63 4.12" fill="none" stroke="#05264c" stroke-miterlimit="10" stroke-width=".75"/><path d="M151.23 156.78s10.63-8.77 5.65-11.29c-3.76-1.9-12.76 8.51-12.76 8.51" fill="#0366d6"/><path d="M132.69 162.59c19.83-17 20.86-10.24 23.3-6.24s7.6 13.73 1.64 16.51-14.46 4.28-14.46 4.28z" fill="#0366d6"/><path d="M135.44 160.3S142 146.27 145 147s1.34 7.3-1.22 10.35" fill="#0366d6"/><path d="M146.08 153a18.65 18.65 0 0 0-5.76 3.9" fill="none" stroke="#05264c" stroke-miterlimit="10" stroke-width=".75"/><path d="M158.87 161.88s4.26-6.61 2.65-10.69-3.48-3.62-3.48-3.62l-6.89 7.24" fill="#0366d6"/><path d="M159.12 166.9s6.18-6.48 5.41-9.77-2.54-5.59-4.95-5.26-5 10.1-5 10.1" fill="#0366d6"/><path d="M159.14 171.78s7.08-6.21 6.2-9.64-5.38-3.9-5.38-3.9" fill="#0366d6"/><path d="M158 147.57s1 2.77-4.79 7.33M161.95 152.42s1 2.77-4.79 7.33M164 160.09s-.77 2.33-4 5.74M207.61 156.7s-6.07-5.21-11.26-5.37M209.3 152.56s-6.09-5.42-11.11-5.25" fill="none" stroke="#05264c" stroke-miterlimit="10" stroke-width=".75"/><path d="M89.67 127.33s3.95 36.1 6 44.45 23.65.43 37-9.19l10.48 14.55S116 210.23 92.06 209.09s-54.45-76.4-54.45-76.4c-9-31.6 21.2-59.36 21.2-59.36 2.65-.53 36.19-41.77 77.91-22.79 24.21 11 40.28 58.3 53.53 93.95L177 156.7 133.36 101l-37.71 33.72" fill="#fdaeb7"/><path d="M137 105.61l40 51.1 6.23-5.74c-3-6.81-7.78-12.8-12.44-18.66-4.12-5.17-8.27-10.38-13.24-14.74-5.94-5.22-12.91-9.1-19.81-12.95zM143.2 177.14l-10.48-14.54c-13.39 9.62-35 17.54-37 9.19-1-4.23-2.55-15.6-3.81-25.77l-2.55 32.44c-.49 6.2-.9 12.8 2 18.29s8.79 8.66 15.1 9.52c19.27-7.84 36.74-29.13 36.74-29.13z" fill="#f297a4"/><g clip-path="url(#b)" fill="none" stroke-miterlimit="10" stroke="#05264c" stroke-linecap="round" stroke-width="1.66"><path d="M134.71 167.35h-.17M120.49 167.35h-.17M106.27 167.35h-.17M92.05 167.35h-.16M77.84 167.35h-.17M134.71 184.13h-.17M120.49 184.13h-.17M106.27 184.13h-.17M92.05 184.13h-.16M77.84 184.13h-.17M134.71 200.91h-.17M120.49 200.91h-.17M106.27 200.91h-.17M92.05 200.91h-.16M77.84 200.91h-.17M134.71 217.69h-.17M120.49 217.69h-.17M106.27 217.69h-.17M92.05 217.69h-.16M77.84 217.69h-.17M128.08 175.74h-.17M113.87 175.74h-.17M99.65 175.74h-.17M85.43 175.74h-.17M71.21 175.74h-.17M128.08 192.52h-.17M113.87 192.52h-.17M99.65 192.52h-.17M85.43 192.52h-.17M71.21 192.52h-.17M128.08 209.3h-.17M113.87 209.3h-.17M99.65 209.3h-.17M85.43 209.3h-.17M71.21 209.3h-.17M141.49 109.07h-.17M127.27 109.07h-.17M113.06 109.07h-.17M98.84 109.07h-.17M84.62 109.07h-.17M141.49 125.85h-.17M127.27 125.85h-.17M113.06 125.85h-.17M98.84 125.85h-.17M84.62 125.85h-.17M141.49 142.63h-.17M127.27 142.63h-.17M113.06 142.63h-.17M98.84 142.63h-.17M84.62 142.63h-.17M141.49 159.41h-.17M127.27 159.41h-.17M113.06 159.41h-.17M98.84 159.41h-.17M84.62 159.41h-.17M134.87 117.46h-.17M120.65 117.46h-.17M106.43 117.46h-.17M92.21 117.46h-.17M77.99 117.46h-.16M134.87 134.24h-.17M120.65 134.24h-.17M106.43 134.24h-.17M92.21 134.24h-.17M77.99 134.24h-.16M134.87 151.02h-.17M120.65 151.02h-.17M106.43 151.02h-.17M92.21 151.02h-.17M77.99 151.02h-.16M64.5 167.35h-.17M50.28 167.35h-.17M36.06 167.35h-.17M21.84 167.35h-.17M7.62 167.35h-.17M64.5 184.13h-.17M50.28 184.13h-.17M36.06 184.13h-.17M21.84 184.13h-.17M7.62 184.13h-.17M64.5 200.91h-.17M50.28 200.91h-.17M36.06 200.91h-.17M21.84 200.91h-.17M7.62 200.91h-.17M64.5 217.69h-.17M50.28 217.69h-.17M36.06 217.69h-.17M21.84 217.69h-.17M7.62 217.69h-.17M57.87 175.74h-.17M43.65 175.74h-.17M29.43 175.74h-.16M15.22 175.74h-.17M1 175.74H.83M57.87 192.52h-.17M43.65 192.52h-.17M29.43 192.52h-.16M15.22 192.52h-.17M1 192.52H.83M57.87 209.3h-.17M43.65 209.3h-.17M29.43 209.3h-.16M15.22 209.3h-.17M1 209.3H.83M71.28 109.07h-.17M57.06 109.07h-.17M42.84 109.07h-.17M28.62 109.07h-.16M14.41 109.07h-.17M71.28 125.85h-.17M57.06 125.85h-.17M42.84 125.85h-.17M28.62 125.85h-.16M14.41 125.85h-.17M71.28 142.63h-.17M57.06 142.63h-.17M42.84 142.63h-.17M28.62 142.63h-.16M14.41 142.63h-.17M71.28 159.41h-.17M57.06 159.41h-.17M42.84 159.41h-.17M28.62 159.41h-.16M14.41 159.41h-.17M64.65 117.46h-.17M50.44 117.46h-.17M36.22 117.46h-.17M22 117.46h-.17M7.78 117.46h-.17M64.65 134.24h-.17M50.44 134.24h-.17M36.22 134.24h-.17M22 134.24h-.17M7.78 134.24h-.17M64.65 151.02h-.17M50.44 151.02h-.17M36.22 151.02h-.17M22 151.02h-.17M7.78 151.02h-.17M141.44 58.72h-.17M127.22 58.72h-.17M113 58.72h-.17M98.78 58.72h-.17M84.56 58.72h-.16M141.44 75.5h-.17M127.22 75.5h-.17M113 75.5h-.17M98.78 75.5h-.17M84.56 75.5h-.16M141.44 92.28h-.17M127.22 92.28h-.17M113 92.28h-.17M98.78 92.28h-.17M84.56 92.28h-.16M141.44 109.07h-.17M127.22 109.07h-.17M113 109.07h-.17M98.78 109.07h-.17M84.56 109.07h-.16M134.81 67.11h-.17M120.59 67.11h-.17M106.38 67.11h-.17M92.16 67.11h-.17M77.94 67.11h-.17M134.81 83.89h-.17M120.59 83.89h-.17M106.38 83.89h-.17M92.16 83.89h-.17M77.94 83.89h-.17M134.81 100.67h-.17M120.59 100.67h-.17M106.38 100.67h-.17M92.16 100.67h-.17M77.94 100.67h-.17M134.71.83h-.17M120.49.83h-.17M106.27.83h-.17M92.05.83h-.16M77.84.83h-.17M134.71 17.61h-.17M120.49 17.61h-.17M106.27 17.61h-.17M92.05 17.61h-.16M77.84 17.61h-.17M134.71 34.39h-.17M120.49 34.39h-.17M106.27 34.39h-.17M92.05 34.39h-.16M77.84 34.39h-.17M134.71 51.18h-.17M120.49 51.18h-.17M106.27 51.18h-.17M92.05 51.18h-.16M77.84 51.18h-.17M128.08 9.22h-.17M113.87 9.22h-.17M99.65 9.22h-.17M85.43 9.22h-.17M71.21 9.22h-.17M128.08 26h-.17M113.87 26h-.17M99.65 26h-.17M85.43 26h-.17M71.21 26h-.17M128.08 42.78h-.17M113.87 42.78h-.17M99.65 42.78h-.17M85.43 42.78h-.17M71.21 42.78h-.17M212.03 109.07h-.16M197.82 109.07h-.17M183.6 109.07h-.17M169.38 109.07h-.17M155.16 109.07h-.17M212.03 125.85h-.16M197.82 125.85h-.17M183.6 125.85h-.17M169.38 125.85h-.17M155.16 125.85h-.17M212.03 142.63h-.16M197.82 142.63h-.17M183.6 142.63h-.17M169.38 142.63h-.17M155.16 142.63h-.17M212.03 159.41h-.16M197.82 159.41h-.17M183.6 159.41h-.17M169.38 159.41h-.17M155.16 159.41h-.17M205.41 117.46h-.17M191.19 117.46h-.17M176.97 117.46h-.17M162.76 117.46h-.17M148.54 117.46h-.17M205.41 134.24h-.17M191.19 134.24h-.17M176.97 134.24h-.17M162.76 134.24h-.17M148.54 134.24h-.17M205.41 151.02h-.17M191.19 151.02h-.17M176.97 151.02h-.17M162.76 151.02h-.17M148.54 151.02h-.17M211.98 58.72h-.17M197.76 58.72h-.17M183.54 58.72h-.17M169.33 58.72h-.17M155.11 58.72h-.17M211.98 75.5h-.17M197.76 75.5h-.17M183.54 75.5h-.17M169.33 75.5h-.17M155.11 75.5h-.17M211.98 92.28h-.17M197.76 92.28h-.17M183.54 92.28h-.17M169.33 92.28h-.17M155.11 92.28h-.17M211.98 109.07h-.17M197.76 109.07h-.17M183.54 109.07h-.17M169.33 109.07h-.17M155.11 109.07h-.17M205.35 67.11h-.17M191.14 67.11h-.17M176.92 67.11h-.17M162.7 67.11h-.17M148.48 67.11h-.17M205.35 83.89h-.17M191.14 83.89h-.17M176.92 83.89h-.17M162.7 83.89h-.17M148.48 83.89h-.17M205.35 100.67h-.17M191.14 100.67h-.17M176.92 100.67h-.17M162.7 100.67h-.17M148.48 100.67h-.17M71.22 58.72h-.17M57.01 58.72h-.17M42.79 58.72h-.17M28.57 58.72h-.17M14.35 58.72h-.17M71.22 75.5h-.17M57.01 75.5h-.17M42.79 75.5h-.17M28.57 75.5h-.17M14.35 75.5h-.17M71.22 92.28h-.17M57.01 92.28h-.17M42.79 92.28h-.17M28.57 92.28h-.17M14.35 92.28h-.17M71.22 109.07h-.17M57.01 109.07h-.17M42.79 109.07h-.17M28.57 109.07h-.17M14.35 109.07h-.17M64.6 67.11h-.17M50.38 67.11h-.17M36.16 67.11h-.17M21.94 67.11h-.16M7.73 67.11h-.17M64.6 83.89h-.17M50.38 83.89h-.17M36.16 83.89h-.17M21.94 83.89h-.16M7.73 83.89h-.17M64.6 100.67h-.17M50.38 100.67h-.17M36.16 100.67h-.17M21.94 100.67h-.16M7.73 100.67h-.17"/></g><circle cx="112.63" cy="114.9" fill="#0366d6" r="26.11"/><g fill="none" stroke="#05264c"><circle cx="212.19" cy="45.06" r="16.06" stroke-miterlimit="10" stroke-width=".68"/><path d="M121.47 123.21a17.47 17.47 0 0 0 14.82 10.06M130.87 124.15a12.72 12.72 0 0 0 6.76 3.2M121.93 133.12a11.48 11.48 0 0 0 7.17 4.88" stroke-miterlimit="10" stroke-width=".75"/><path d="M267.14 108.75l27.72-1.94 6.69 19.19a28 28 0 0 1-2.7 1.73c-1 .55-2 1.14-3 1.59 0 0-5.17 1.29-3.93-3a13.08 13.08 0 0 1 .31-1.34c1.23-3-1.07-5-3.49-5.15a5.58 5.58 0 0 0-5.07 2.84 3.69 3.69 0 0 0 1.43 4.67 3.94 3.94 0 0 1 1.93 2 2.51 2.51 0 0 1-1.66 3.58 25.81 25.81 0 0 1-6.66 1.07c-1.67.09-3.33.1-5 .11v-.11a53.19 53.19 0 0 0-.94-11 3 3 0 0 0-2.09-2.49 2.83 2.83 0 0 0-2.81.86 4.83 4.83 0 0 0-.94 1.12c-1.22 2.28-3.71 2.62-5.71.85a5.19 5.19 0 0 1-1.3-6.22 3.47 3.47 0 0 1 4.43-1.68c1.45.58 3 .72 4.15-.49s.68-2.8-.09-4.16q-.57-1-1.17-2zM325.47 376.91s1.35-3.06-1.33-7.7-3.45-4-5.88-.55-5.66-.85-5.88-2.35-.41-5.38 4.92-4.61 2.6-3.71 1.92-5.14c-.84-1.75-5.95-6.17-5.95-6.17l.19.08a30.26 30.26 0 0 0-6.05.81 38.8 38.8 0 0 0-4.75 1.3 2.83 2.83 0 0 0-2.22 2.25c-.27 1.36.51 2.18 1.34 3a3 3 0 0 0 1 .58c3 1.18 2.73 4.27 1.11 6a5 5 0 0 1-6.64 1 3.1 3.1 0 0 1-1.24-3.25 11.66 11.66 0 0 0 .22-2.31 2.71 2.71 0 0 0-4.43-2.09 47.14 47.14 0 0 0-8.28 6.88c-.11.11-.19.25-.29.37a44.62 44.62 0 0 1 3.66 3.84 49.57 49.57 0 0 1 3.58 4.84 2.72 2.72 0 0 1-2.24 4.34 6.62 6.62 0 0 1-2.12-.25 3.38 3.38 0 0 0-3.62 1.71c-1.27 2.19-.2 5.17 1.6 6.5a3.63 3.63 0 0 0 5-.3 14 14 0 0 0 1-1.76c1.11-1.65 2.44-2.23 4-1.45a3.53 3.53 0 0 1 1.59 2.27 43.26 43.26 0 0 1 1.4 5.5l28.5-13.67z" stroke-linecap="round" stroke-linejoin="round" stroke-width=".75"/></g><path d="M95.69 310.89s-19.12-11.29-33.84-2.06-20.12 52.41 5.89 98 54 57.9 72.13 39.74 32.88-87.53 32.88-87.53l-17.66-3.93A75.28 75.28 0 0 1 131.87 398s-6.73-32.88-26.11-42.2z" fill="#f66a0a"/><path d="M160.1 383.43c2.28-4.4 2.19-9.67 1.26-14.55-.83-4.39-2.28-8.66-3.1-13.05l-3.17-.71A75.28 75.28 0 0 1 131.87 398l3.13 20.14c1-2.87 1.86-5.14 2.9-8 1.28-3.56 2.59-7.17 4.88-10.18 4.85-6.41 13.62-9.39 17.32-16.53z" fill="#e36209"/><circle cx="105.76" cy="334.98" fill="#fdaeb7" r="26.11"/><path d="M131.87 398.04l3.12 20.1" fill="none" stroke="#05264c" stroke-miterlimit="10" stroke-width=".75"/><path d="M155.09 355.16s-1.28-13.08 3.51-23.46 7.45-14.1 7.45-14.1.8-2.13 2.66-1.33 0 4 0 4l-4 11.18s4.26 0 11.18 6.15-3.14 21.5-3.14 21.5" fill="#fdaeb7"/><path d="M164.72 331.44l-1.89 6.15M92.26 308.7c1.58 3-.14 7.08 3.89 8.42 4.51 1.5 10.07-1.23 14.71-1 5.27.22 9.34 3.44 9.46 8.87.09 4.11-1.95 9.65 1.14 13.17 2.72 3.11 7.95 1.29 11.53 2.09" fill="none" stroke="#05264c" stroke-miterlimit="10" stroke-width=".75"/><path d="M109.66 434.33a128.61 128.61 0 0 1-18.45-22.64c-10.31-15.77-18.59-33.93-34.34-44.27a16.59 16.59 0 0 0-4.87-2.3 141.41 141.41 0 0 0 16 41.78c24.26 42.57 50.23 56.09 68.35 43-10.15-2.32-19.28-8.48-26.69-15.57z" fill="#e36209"/><path d="M379.79 259.89s-22.22 13.71-36.87 12.76-52-17-52-17l-.7 1.81 29 15.19a104.58 104.58 0 0 0 15.06 6.89 52.55 52.55 0 0 0 26.87 1.7c4.17-.83 8.35-2.24 11.62-5 5.22-4.35 5.16-9.84 7-16.37" fill="#005cc5"/><circle cx="372.98" cy="209.09" fill="#f66a0a" r="26.11"/><path d="M395.83 197.94a13.85 13.85 0 0 1 3.26 11.14" fill="none" stroke="#05264c" stroke-miterlimit="10" stroke-width=".75"/><path d="M349.94 171.55a96.28 96.28 0 0 1-26.68-8.26c-5.44-2.61-10.64-5.73-16.18-8.13a89.69 89.69 0 0 0-25.58-6.37c-17.68 4.75-29.83 8.53-29.83 8.53v14.18s41 3.93 98.27.05z" fill="#005cc5"/></svg>